<?xml version="1.0" encoding="utf-8"?>
<!-- Generator: Adobe Illustrator 16.0.0, SVG Export Plug-In . SVG Version: 6.00 Build 0)  -->
<!DOCTYPE svg PUBLIC "-//W3C//DTD SVG 1.1//EN" "http://www.w3.org/Graphics/SVG/1.1/DTD/svg11.dtd">
<svg version="1.1" id="Layer_1" xmlns="http://www.w3.org/2000/svg" xmlns:xlink="http://www.w3.org/1999/xlink" x="0px" y="0px"
	 width="960px" height="200px" viewBox="0 0 960 200" enable-background="new 0 0 960 200" xml:space="preserve">
<path d="M53.205,24.574h6.9v69.9h-6.9V24.574z"/>
<path d="M162.304,47.274c3.465,3.6,5.2,8.6,5.2,15v32.2h-6.8v-30.6c0-5-1.35-8.883-4.05-11.65c-2.7-2.766-6.417-4.15-11.15-4.15
	c-5.6,0.134-9.984,2.067-13.15,5.8c-3.167,3.734-4.75,8.667-4.75,14.8v25.8h-6.8v-30.6c0-5-1.35-8.883-4.05-11.65
	c-2.7-2.766-6.417-4.15-11.15-4.15c-5.6,0.134-10,2.067-13.2,5.8c-3.2,3.734-4.8,8.667-4.8,14.8v25.8h-6.7v-52.4h6.7v12.3
	c1.733-4.133,4.315-7.233,7.75-9.3c3.433-2.066,7.616-3.133,12.55-3.2c5,0,9.15,1.234,12.45,3.7c3.3,2.467,5.483,5.934,6.55,10.4
	c1.6-4.666,4.183-8.166,7.75-10.5c3.566-2.333,7.95-3.533,13.15-3.6C154.003,41.874,158.836,43.674,162.304,47.274z"/>
<path d="M218.304,94.474l-0.1-8.8c-2.067,3.067-4.767,5.35-8.1,6.85c-3.334,1.5-7.167,2.25-11.5,2.25c-3.534,0-6.65-0.683-9.35-2.05
	c-2.7-1.366-4.784-3.25-6.25-5.65c-1.467-2.4-2.2-5.1-2.2-8.1c0-4.533,1.75-8.1,5.25-10.7c3.5-2.6,8.315-3.9,14.45-3.9h17.6v-4
	c0-4.133-1.234-7.333-3.7-9.6c-2.467-2.266-6.067-3.4-10.8-3.4c-5.6,0-11.234,2.1-16.9,6.3l-3-4.6c3.533-2.466,6.9-4.283,10.1-5.45
	c3.2-1.166,6.865-1.75,11-1.75c6.333,0,11.232,1.584,14.7,4.75c3.466,3.167,5.233,7.55,5.3,13.15l0.1,34.7H218.304z M211.653,85.924
	c3.233-2.166,5.416-5.216,6.55-9.15v-7.2h-16.9c-4.6,0-8.1,0.767-10.5,2.3c-2.4,1.535-3.6,3.834-3.6,6.9
	c0,3.135,1.15,5.65,3.45,7.55c2.3,1.9,5.35,2.85,9.15,2.85C204.469,89.174,208.419,88.091,211.653,85.924z"/>
<path d="M288.103,42.074v46.9c0,5.067-1.067,9.5-3.2,13.299c-2.134,3.801-5.184,6.717-9.15,8.75
	c-3.967,2.033-8.55,3.051-13.75,3.051c-7.734,0-14.9-2.668-21.5-8l3.2-4.801c2.666,2.334,5.465,4.101,8.4,5.301
	c2.933,1.199,6.133,1.8,9.6,1.8c6,0,10.783-1.75,14.35-5.25c3.566-3.5,5.35-8.184,5.35-14.05v-8.5c-1.867,3.667-4.534,6.534-8,8.6
	c-3.467,2.067-7.467,3.1-12,3.1c-4.667,0-8.817-1.083-12.45-3.25c-3.635-2.166-6.467-5.166-8.5-9
	c-2.035-3.833-3.05-8.183-3.05-13.05c0-4.866,1.016-9.2,3.05-13c2.033-3.8,4.883-6.766,8.55-8.9c3.666-2.133,7.833-3.2,12.5-3.2
	c4.533,0,8.5,1.017,11.9,3.05c3.4,2.034,6.066,4.917,8,8.65v-11.5H288.103z M272.302,84.324c2.866-1.7,5.1-4.05,6.7-7.05
	s2.4-6.365,2.4-10.1c0-3.8-0.8-7.2-2.4-10.2s-3.834-5.35-6.7-7.05c-2.867-1.7-6.1-2.55-9.7-2.55s-6.834,0.85-9.7,2.55
	c-2.867,1.7-5.117,4.05-6.75,7.05c-1.634,3-2.45,6.4-2.45,10.2c0,3.8,0.815,7.184,2.45,10.15c1.633,2.967,3.866,5.3,6.7,7
	c2.833,1.7,6.083,2.55,9.75,2.55C266.203,86.874,269.435,86.024,272.302,84.324z"/>
<path d="M345.302,49.624c4.266,5.167,6.233,12.117,5.9,20.85h-43.7c0.466,5.6,2.533,10.117,6.2,13.55
	c3.666,3.435,8.2,5.15,13.6,5.15c3.333,0,6.433-0.6,9.3-1.8c2.866-1.2,5.333-2.9,7.4-5.1l3.8,3.8c-2.534,2.734-5.584,4.85-9.15,6.35
	c-3.567,1.5-7.484,2.25-11.75,2.25c-5.067,0-9.567-1.116-13.5-3.35c-3.934-2.233-7.017-5.35-9.25-9.35
	c-2.234-4-3.35-8.565-3.35-13.7c0-5.065,1.116-9.615,3.35-13.65c2.233-4.033,5.316-7.166,9.25-9.4c3.933-2.233,8.366-3.35,13.3-3.35
	C334.835,41.874,341.035,44.458,345.302,49.624z M345.202,65.274c-0.334-5.465-2.15-9.815-5.45-13.05
	c-3.3-3.233-7.617-4.85-12.95-4.85c-5.267,0-9.667,1.634-13.2,4.9c-3.535,3.268-5.567,7.6-6.1,13H345.202z"/>
<path d="M439.801,30.624c4.732,4.035,7.1,9.75,7.1,17.15c0,7.667-2.367,13.6-7.1,17.8c-4.734,4.2-11.435,6.3-20.101,6.3h-18.899
	v22.6h-6.9v-69.9h25.8C428.366,24.574,435.066,26.591,439.801,30.624z M434.851,61.124c3.633-3.033,5.45-7.416,5.45-13.15
	c0-5.6-1.801-9.866-5.4-12.8c-3.6-2.933-8.768-4.4-15.5-4.4h-18.6v34.9h18.6C426.066,65.674,431.216,64.159,434.851,61.124z"/>
<path d="M485.3,41.874c-4.534,0.067-8.417,1.15-11.649,3.25c-3.234,2.1-5.718,5.15-7.45,9.15v-12.2h-6.7v52.4h6.7v-28
	c0.466-5.666,2.383-10.15,5.75-13.45c3.365-3.3,7.815-4.916,13.35-4.85V41.874z"/>
<path d="M588.499,47.774c-3.734,0-7.1,0.867-10.1,2.6c-3,1.734-5.334,4.15-7,7.25c-1.667,3.1-2.5,6.65-2.5,10.65
	s0.833,7.567,2.5,10.7c1.666,3.134,4,5.567,7,7.3c3,1.734,6.365,2.6,10.1,2.6c3.4,0,6.516-0.6,9.351-1.8
	c2.833-1.2,5.216-2.933,7.149-5.2l3.801,4c-2.335,2.8-5.268,4.967-8.801,6.5c-3.534,1.535-7.467,2.3-11.8,2.3
	c-5,0-9.467-1.116-13.399-3.35c-3.935-2.233-7.018-5.366-9.25-9.4c-2.234-4.033-3.351-8.583-3.351-13.65
	c0-5.065,1.116-9.615,3.351-13.65c2.232-4.033,5.315-7.166,9.25-9.4c3.933-2.233,8.399-3.35,13.399-3.35
	c4.065,0,7.783,0.667,11.15,2c3.365,1.334,6.25,3.2,8.649,5.6l-3.8,4.5C599.933,49.841,594.699,47.774,588.499,47.774z"/>
<path d="M660.2,49.624c4.266,5.167,6.233,12.117,5.9,20.85h-43.7c0.466,5.6,2.533,10.117,6.2,13.55c3.665,3.435,8.2,5.15,13.6,5.15
	c3.333,0,6.433-0.6,9.3-1.8c2.866-1.2,5.333-2.9,7.4-5.1l3.8,3.8c-2.534,2.734-5.584,4.85-9.149,6.35
	c-3.567,1.5-7.484,2.25-11.75,2.25c-5.067,0-9.567-1.116-13.5-3.35c-3.935-2.233-7.018-5.35-9.25-9.35
	c-2.234-4-3.351-8.565-3.351-13.7c0-5.065,1.116-9.615,3.351-13.65c2.232-4.033,5.315-7.166,9.25-9.4
	c3.933-2.233,8.365-3.35,13.3-3.35C649.733,41.874,655.934,44.458,660.2,49.624z M660.101,65.274
	c-0.335-5.465-2.15-9.815-5.45-13.05c-3.3-3.233-7.617-4.85-12.95-4.85c-5.267,0-9.667,1.634-13.2,4.9
	c-3.534,3.268-5.566,7.6-6.1,13H660.101z"/>
<path d="M700.499,48.424c-2.468-0.7-4.9-1.05-7.3-1.05c-3.335,0-6.018,0.65-8.051,1.95c-2.034,1.3-3.05,3.25-3.05,5.85
	c0,1.8,0.55,3.267,1.65,4.4c1.1,1.134,2.466,2.05,4.1,2.75c1.633,0.7,3.916,1.484,6.851,2.35c3.6,1.067,6.532,2.117,8.8,3.15
	c2.266,1.034,4.2,2.534,5.8,4.5c1.6,1.967,2.4,4.55,2.4,7.75c0,4.734-1.801,8.35-5.4,10.85s-8.1,3.75-13.5,3.75
	c-3.8,0-7.467-0.633-11-1.9c-3.534-1.266-6.5-3.065-8.9-5.4l2.7-4.8c2.266,2.067,4.95,3.7,8.05,4.9c3.101,1.2,6.25,1.8,9.45,1.8
	c3.533,0,6.416-0.732,8.65-2.2c2.232-1.466,3.35-3.6,3.35-6.4c0-1.933-0.567-3.516-1.7-4.75c-1.134-1.233-2.55-2.2-4.25-2.9
	c-1.699-0.7-4.05-1.516-7.05-2.45c-3.534-1.066-6.399-2.1-8.6-3.1s-4.067-2.45-5.601-4.35c-1.534-1.9-2.3-4.383-2.3-7.45
	c0-4.6,1.716-8.066,5.15-10.4c3.433-2.333,7.716-3.5,12.85-3.5c3,0,5.9,0.4,8.7,1.2s5.3,1.9,7.5,3.3l-2.6,5.1
	C705.199,50.108,702.965,49.124,700.499,48.424z"/>
<path d="M745.398,48.424c-2.468-0.7-4.9-1.05-7.3-1.05c-3.335,0-6.018,0.65-8.051,1.95c-2.034,1.3-3.05,3.25-3.05,5.85
	c0,1.8,0.55,3.267,1.65,4.4c1.1,1.134,2.466,2.05,4.1,2.75c1.633,0.7,3.916,1.484,6.851,2.35c3.6,1.067,6.532,2.117,8.8,3.15
	c2.266,1.034,4.2,2.534,5.8,4.5c1.6,1.967,2.4,4.55,2.4,7.75c0,4.734-1.801,8.35-5.4,10.85s-8.1,3.75-13.5,3.75
	c-3.8,0-7.467-0.633-11-1.9c-3.534-1.266-6.5-3.065-8.9-5.4l2.7-4.8c2.266,2.067,4.95,3.7,8.05,4.9c3.101,1.2,6.25,1.8,9.45,1.8
	c3.533,0,6.416-0.732,8.65-2.2c2.232-1.466,3.35-3.6,3.35-6.4c0-1.933-0.567-3.516-1.7-4.75c-1.134-1.233-2.55-2.2-4.25-2.9
	c-1.699-0.7-4.05-1.516-7.05-2.45c-3.534-1.066-6.399-2.1-8.6-3.1s-4.067-2.45-5.601-4.35c-1.534-1.9-2.3-4.383-2.3-7.45
	c0-4.6,1.716-8.066,5.15-10.4c3.433-2.333,7.716-3.5,12.85-3.5c3,0,5.9,0.4,8.7,1.2s5.3,1.9,7.5,3.3l-2.6,5.1
	C750.099,50.108,747.864,49.124,745.398,48.424z"/>
<path d="M776.597,23.624c0.865,0.9,1.3,2.017,1.3,3.35c0,1.334-0.45,2.467-1.35,3.4c-0.9,0.935-1.984,1.4-3.25,1.4
	c-1.335,0-2.45-0.465-3.351-1.4c-0.899-0.933-1.35-2.065-1.35-3.4c0-1.333,0.45-2.45,1.35-3.35c0.9-0.9,2.016-1.35,3.351-1.35
	C774.63,22.274,775.729,22.724,776.597,23.624z M769.896,42.074h6.7v52.4h-6.7V42.074z"/>
<path d="M838.246,47.324c3.565,3.634,5.35,8.617,5.35,14.95v32.2h-6.8v-30.6c0-4.933-1.367-8.8-4.1-11.6
	c-2.734-2.8-6.535-4.2-11.4-4.2c-5.4,0.067-9.717,1.734-12.95,5c-3.234,3.267-5.084,7.667-5.55,13.2v28.2h-6.7v-52.4h6.7v12.2
	c1.8-4.065,4.45-7.133,7.95-9.2c3.5-2.066,7.75-3.133,12.75-3.2C829.762,41.874,834.679,43.691,838.246,47.324z"/>
<path d="M906.795,42.074v46.9c0,5.067-1.066,9.5-3.199,13.299c-2.135,3.801-5.185,6.717-9.15,8.75
	c-3.967,2.033-8.55,3.051-13.75,3.051c-7.734,0-14.9-2.668-21.5-8l3.2-4.801c2.665,2.334,5.466,4.101,8.399,5.301
	c2.934,1.199,6.133,1.8,9.601,1.8c6,0,10.782-1.75,14.35-5.25c3.565-3.5,5.351-8.184,5.351-14.05v-8.5
	c-1.867,3.667-4.535,6.534-8,8.6c-3.468,2.067-7.468,3.1-12,3.1c-4.668,0-8.817-1.083-12.45-3.25c-3.635-2.166-6.468-5.166-8.5-9
	c-2.034-3.833-3.05-8.183-3.05-13.05c0-4.866,1.016-9.2,3.05-13c2.032-3.8,4.883-6.766,8.55-8.9c3.666-2.133,7.833-3.2,12.5-3.2
	c4.533,0,8.5,1.017,11.9,3.05c3.399,2.034,6.065,4.917,8,8.65v-11.5H906.795z M890.995,84.324c2.866-1.7,5.101-4.05,6.7-7.05
	s2.4-6.365,2.4-10.1c0-3.8-0.801-7.2-2.4-10.2s-3.834-5.35-6.7-7.05c-2.867-1.7-6.1-2.55-9.7-2.55c-3.6,0-6.834,0.85-9.699,2.55
	c-2.867,1.7-5.117,4.05-6.75,7.05c-1.635,3-2.45,6.4-2.45,10.2c0,3.8,0.815,7.184,2.45,10.15c1.633,2.967,3.865,5.3,6.699,7
	c2.833,1.7,6.083,2.55,9.75,2.55C884.896,86.874,888.128,86.024,890.995,84.324z"/>
<path fill="#226149" d="M544.276,54.852c1.791,0,3.348,0.955,4.224,2.376v-11.13c0-2.333-1.892-4.224-4.225-4.224h-44.352
	c-2.333,0-4.224,1.891-4.224,4.224v11.13c0.876-1.421,2.433-2.376,4.224-2.376c2.747,0,4.975,2.227,4.975,4.974
	c0,2.748-2.228,4.975-4.975,4.975c-1.791,0-3.348-0.955-4.224-2.376v25.428c0.876-1.421,2.433-2.376,4.224-2.376
	c2.747,0,4.975,2.226,4.975,4.974c0,1.792-0.956,3.349-2.377,4.225h39.157c-1.421-0.876-2.377-2.433-2.377-4.225
	c0-2.747,2.228-4.974,4.975-4.974c1.791,0,3.348,0.955,4.224,2.376V62.424c-0.876,1.421-2.433,2.376-4.224,2.376
	c-2.747,0-4.975-2.227-4.975-4.975C539.302,57.079,541.529,54.852,544.276,54.852z"/>
<path fill="#D6BD28" d="M544.276,85.476c-2.747,0-4.975,2.227-4.975,4.974c0,1.792,0.956,3.349,2.377,4.225h2.597
	c-2.333,0-4.224-1.891-4.224-4.225c0-2.333,1.891-4.224,4.224-4.224s4.225,1.891,4.225,4.224v-2.598
	C547.624,86.431,546.067,85.476,544.276,85.476z"/>
<path fill="#D6BD28" d="M544.275,86.226c-2.333,0-4.224,1.891-4.224,4.224c0,2.334,1.891,4.225,4.224,4.225s4.225-1.891,4.225-4.225
	C548.5,88.117,546.608,86.226,544.275,86.226z M544.275,92.773c-1.283,0-2.322-1.04-2.322-2.323s1.039-2.323,2.322-2.323
	s2.323,1.04,2.323,2.323S545.559,92.773,544.275,92.773z"/>
<path fill="#D6BD28" d="M544.276,54.852c-2.747,0-4.975,2.227-4.975,4.974c0,2.748,2.228,4.975,4.975,4.975
	c1.791,0,3.348-0.955,4.224-2.376v-5.196C547.624,55.807,546.067,54.852,544.276,54.852z M544.275,62.149
	c-1.283,0-2.322-1.04-2.322-2.323s1.039-2.323,2.322-2.323s2.323,1.04,2.323,2.323S545.559,62.149,544.275,62.149z"/>
<path fill="#D6BD28" d="M499.924,54.852c-1.791,0-3.348,0.955-4.224,2.376v5.196c0.876,1.421,2.433,2.376,4.224,2.376
	c2.747,0,4.975-2.227,4.975-4.975C504.898,57.079,502.671,54.852,499.924,54.852z M499.924,62.149c-1.283,0-2.322-1.04-2.322-2.323
	s1.039-2.323,2.322-2.323s2.323,1.04,2.323,2.323S501.207,62.149,499.924,62.149z"/>
<path fill="#D6BD28" d="M499.924,85.476c-1.791,0-3.348,0.955-4.224,2.376v2.598c0-2.333,1.891-4.224,4.224-4.224
	s4.225,1.891,4.225,4.224c0,2.334-1.892,4.225-4.225,4.225h2.598c1.421-0.876,2.377-2.433,2.377-4.225
	C504.898,87.702,502.671,85.476,499.924,85.476z"/>
<path fill="#D6BD28" d="M499.924,86.226c-2.333,0-4.224,1.891-4.224,4.224c0,2.334,1.891,4.225,4.224,4.225s4.225-1.891,4.225-4.225
	C504.148,88.117,502.257,86.226,499.924,86.226z M499.924,92.773c-1.283,0-2.322-1.04-2.322-2.323s1.039-2.323,2.322-2.323
	s2.323,1.04,2.323,2.323S501.207,92.773,499.924,92.773z"/>
<rect x="512.125" y="51.898" fill="#1F2533" width="19.951" height="19.952"/>
<circle fill="#13151C" cx="522.101" cy="61.874" r="8.171"/>
<circle fill="#040407" cx="522.101" cy="61.874" r="7.002"/>
<rect x="514.828" y="79.884" fill="#1E1B22" width="19.744" height="7.779"/>
<rect x="514.749" y="71.85" width="14.703" height="8.035"/>
<rect x="514.749" y="71.85" fill="#6E3A31" width="14.703" height="1.708"/>
<rect x="514.749" y="78.176" fill="#6E3A31" width="14.703" height="1.708"/>
<g>
	<path fill="#4169E1" d="M425.774,167.8v6.552h-29.008v-5.432l14.784-15.232c1.418-1.418,2.557-2.818,3.416-4.2
		c0.858-1.381,1.288-2.576,1.288-3.584c0-1.418-0.56-2.528-1.68-3.332c-1.12-0.802-2.669-1.204-4.648-1.204
		c-1.718,0-3.547,0.43-5.488,1.288c-1.941,0.859-3.771,2.054-5.488,3.584l-2.968-5.768c2.314-1.792,4.75-3.183,7.308-4.172
		c2.557-0.989,5.124-1.484,7.7-1.484s4.853,0.411,6.832,1.232c1.979,0.821,3.518,1.987,4.62,3.5
		c1.101,1.512,1.652,3.258,1.652,5.235c0,1.904-0.654,3.92-1.96,6.049c-1.307,2.128-3.136,4.424-5.488,6.888l-9.968,10.08H425.774z"
		/>
	<path fill="#4169E1" d="M459.99,139.968c2.912,3.435,4.368,8.363,4.368,14.784c0,6.384-1.456,11.293-4.368,14.728
		c-2.912,3.436-7.075,5.152-12.488,5.152c-5.414,0-9.576-1.717-12.488-5.152c-2.912-3.435-4.368-8.344-4.368-14.728
		c0-6.421,1.456-11.35,4.368-14.784s7.074-5.152,12.488-5.152C452.915,134.815,457.078,136.533,459.99,139.968z M440.614,144.14
		c-1.494,2.259-2.24,5.796-2.24,10.612c0,4.779,0.747,8.307,2.24,10.584c1.493,2.277,3.789,3.416,6.888,3.416
		c3.098,0,5.394-1.139,6.888-3.416c1.493-2.277,2.24-5.805,2.24-10.584c0-4.816-0.748-8.354-2.24-10.612
		c-1.494-2.259-3.79-3.388-6.888-3.388C444.403,140.752,442.107,141.881,440.614,144.14z"/>
	<path fill="#4169E1" d="M467.27,135.151h15.736v39.2h-7.504V141.76h-8.232V135.151z"/>
	<path fill="#4169E1" d="M489.109,135.151h30.24v5.601l-16.129,33.6h-7.951l15.623-32.648h-15.063l-0.056,5.545h-6.664V135.151z"/>
	<path fill="#4169E1" d="M539.844,128.6h3.025v52.64h-3.025V128.6z"/>
	<path fill="#4169E1" d="M562.636,135.208h28.784v2.296h-13.216v36.848h-2.353v-36.848h-13.216V135.208z"/>
	<path fill="#4169E1" d="M611.944,147.052c2.071,1.288,3.64,3.09,4.704,5.403c1.063,2.315,1.576,4.966,1.539,7.952h-25.479
		c0.112,2.353,0.69,4.425,1.736,6.217c1.044,1.792,2.464,3.183,4.256,4.172s3.808,1.483,6.048,1.483
		c1.979,0,3.816-0.345,5.516-1.036c1.699-0.69,3.145-1.688,4.34-2.995l1.345,1.512c-1.382,1.493-3.044,2.642-4.983,3.443
		c-1.942,0.804-4.052,1.204-6.328,1.204c-2.727,0-5.172-0.624-7.336-1.876c-2.166-1.25-3.855-2.986-5.068-5.208
		c-1.214-2.221-1.82-4.731-1.82-7.531c0-2.801,0.616-5.32,1.848-7.561c1.232-2.24,2.921-3.984,5.068-5.236
		c2.146-1.25,4.582-1.876,7.309-1.876C607.436,145.119,609.872,145.764,611.944,147.052z M616.061,158.336
		c-0.225-3.36-1.363-6.049-3.416-8.064c-2.055-2.016-4.724-3.023-8.008-3.023c-3.286,0-6.012,1.018-8.177,3.052
		c-2.165,2.035-3.397,4.714-3.696,8.036H616.061z"/>
	<path fill="#4169E1" d="M645.291,174.352l-0.056-5.768c-1.195,1.979-2.791,3.443-4.788,4.396c-1.998,0.952-4.283,1.428-6.859,1.428
		c-1.904,0-3.584-0.372-5.041-1.12c-1.455-0.746-2.585-1.764-3.387-3.052c-0.804-1.288-1.205-2.753-1.205-4.396
		c0-2.427,0.971-4.34,2.912-5.74s4.592-2.1,7.952-2.1h10.36v-2.856c-0.037-2.501-0.784-4.442-2.24-5.824
		c-1.456-1.381-3.621-2.071-6.496-2.071c-1.755,0-3.416,0.327-4.984,0.979c-1.567,0.653-3.173,1.596-4.815,2.828l-1.12-1.792
		c1.904-1.381,3.732-2.417,5.488-3.108c1.754-0.69,3.677-1.036,5.768-1.036c3.396,0,6.02,0.878,7.868,2.633s2.79,4.163,2.828,7.224
		l0.112,19.376H645.291z M641.035,170.432c1.941-1.232,3.342-3.099,4.2-5.6v-4.761h-10.192c-2.875,0-5.067,0.486-6.58,1.456
		c-1.512,0.972-2.268,2.39-2.268,4.256c0,1.942,0.7,3.51,2.1,4.704c1.4,1.195,3.276,1.792,5.629,1.792
		C636.724,172.279,639.094,171.663,641.035,170.432z"/>
	<path fill="#4169E1" d="M703.167,148.144c1.96,2.016,2.94,4.816,2.94,8.4v17.808h-2.297v-17.36c0-2.986-0.821-5.319-2.463-7
		c-1.645-1.68-3.939-2.52-6.889-2.52c-3.473,0.075-6.188,1.231-8.148,3.472c-1.959,2.24-2.939,5.283-2.939,9.128v14.28h-2.296
		v-17.36c0-2.986-0.831-5.319-2.492-7c-1.661-1.68-3.948-2.52-6.86-2.52c-3.472,0.075-6.197,1.241-8.176,3.5s-2.968,5.292-2.968,9.1
		v14.28h-2.296v-29.176h2.296v7.672c0.933-2.501,2.398-4.396,4.396-5.685c1.997-1.287,4.452-1.969,7.364-2.044
		c2.912,0,5.301,0.738,7.168,2.213c1.866,1.475,3.062,3.556,3.584,6.243c0.896-2.725,2.36-4.796,4.396-6.216
		c2.035-1.418,4.545-2.165,7.533-2.24C698.491,145.119,701.207,146.128,703.167,148.144z"/>
	<path fill="#4169E1" d="M727.387,135.208h12.32v39.144h-2.297v-36.848h-10.023V135.208z"/>
	<path fill="#4169E1" d="M779.83,140.136c2.705,3.397,4.059,8.27,4.059,14.616s-1.354,11.228-4.059,14.644
		c-2.707,3.416-6.6,5.124-11.676,5.124c-5.041,0-8.924-1.708-11.648-5.124c-2.727-3.416-4.088-8.297-4.088-14.644
		c0-6.31,1.361-11.173,4.088-14.589c2.725-3.415,6.607-5.123,11.648-5.123C773.23,135.04,777.123,136.739,779.83,140.136z
		 M758.213,141.676c-2.295,3.006-3.443,7.364-3.443,13.076s1.148,10.08,3.443,13.104c2.297,3.024,5.609,4.536,9.941,4.536
		c4.33,0,7.643-1.512,9.939-4.536c2.295-3.023,3.443-7.392,3.443-13.104s-1.148-10.07-3.443-13.076
		c-2.297-3.005-5.609-4.508-9.939-4.508C763.822,137.168,760.51,138.671,758.213,141.676z"/>
	<path fill="#4169E1" d="M788.816,135.208h28.113v2.296l-18.592,36.848h-2.521l18.648-36.848h-23.463v6.104h-2.186V135.208z"/>
	<path fill="#4169E1" d="M847.896,172.056v2.296h-27.271l0.057-2.408l15.734-16.464c1.941-1.979,3.473-3.938,4.594-5.88
		c1.119-1.94,1.68-3.621,1.68-5.04c0-2.24-0.869-4.004-2.605-5.292c-1.734-1.288-4.098-1.932-7.084-1.932
		c-1.941,0-3.91,0.42-5.906,1.26c-1.998,0.84-3.781,2.007-5.35,3.5l-1.176-1.848c1.717-1.643,3.688-2.921,5.908-3.837
		c2.221-0.914,4.471-1.371,6.748-1.371c3.658,0,6.553,0.84,8.68,2.52c2.129,1.68,3.193,3.939,3.193,6.776
		c0,1.717-0.637,3.668-1.904,5.852c-1.27,2.184-3.006,4.434-5.209,6.748l-14.559,15.12H847.896z"/>
</g>
</svg>
