<?xml version="1.0" encoding="utf-8"?>
<!-- Generator: Adobe Illustrator 16.0.0, SVG Export Plug-In . SVG Version: 6.00 Build 0)  -->
<!DOCTYPE svg PUBLIC "-//W3C//DTD SVG 1.1//EN" "http://www.w3.org/Graphics/SVG/1.1/DTD/svg11.dtd">
<svg version="1.1" id="Layer_1" xmlns="http://www.w3.org/2000/svg" xmlns:xlink="http://www.w3.org/1999/xlink" x="0px" y="0px"
	 width="720px" height="150px" viewBox="0 0 720 150" enable-background="new 0 0 720 150" xml:space="preserve">
<path d="M39.904,20.942h5.175v52.425h-5.175V20.942z"/>
<path d="M121.728,37.967c2.599,2.7,3.9,6.45,3.9,11.25v24.15h-5.1v-22.95c0-3.75-1.013-6.662-3.038-8.737
	c-2.024-2.074-4.813-3.113-8.362-3.113c-4.2,0.101-7.488,1.55-9.862,4.35c-2.375,2.801-3.563,6.5-3.563,11.1v19.35h-5.1v-22.95
	c0-3.75-1.012-6.662-3.038-8.737c-2.025-2.074-4.813-3.113-8.362-3.113c-4.2,0.101-7.5,1.55-9.9,4.35c-2.399,2.801-3.6,6.5-3.6,11.1
	v19.35h-5.025v-39.3h5.025v9.225c1.3-3.1,3.236-5.425,5.813-6.975c2.574-1.549,5.712-2.35,9.412-2.4c3.75,0,6.863,0.926,9.338,2.775
	c2.475,1.851,4.112,4.451,4.912,7.8c1.2-3.5,3.138-6.125,5.813-7.875c2.675-1.75,5.963-2.65,9.863-2.7
	C115.502,33.917,119.127,35.267,121.728,37.967z"/>
<path d="M163.728,73.367l-0.075-6.6c-1.551,2.3-3.576,4.012-6.075,5.137c-2.501,1.125-5.375,1.688-8.625,1.688
	c-2.651,0-4.987-0.512-7.013-1.538c-2.025-1.024-3.588-2.438-4.688-4.237c-1.101-1.8-1.65-3.825-1.65-6.075
	c0-3.4,1.313-6.075,3.938-8.025c2.625-1.95,6.237-2.925,10.837-2.925h13.2v-3c0-3.1-0.926-5.5-2.775-7.2
	c-1.85-1.699-4.55-2.55-8.1-2.55c-4.2,0-8.426,1.575-12.675,4.725l-2.25-3.45c2.649-1.849,5.175-3.212,7.575-4.087
	c2.4-0.874,5.149-1.313,8.25-1.313c4.75,0,8.424,1.188,11.025,3.563c2.6,2.375,3.925,5.663,3.975,9.862l0.075,26.025H163.728z
	 M158.74,66.955c2.425-1.625,4.062-3.912,4.913-6.863v-5.4h-12.675c-3.45,0-6.075,0.576-7.875,1.725c-1.8,1.151-2.7,2.876-2.7,5.175
	c0,2.351,0.862,4.238,2.587,5.663c1.726,1.425,4.013,2.138,6.863,2.138C153.352,69.392,156.314,68.58,158.74,66.955z"/>
<path d="M216.077,34.067v35.175c0,3.801-0.8,7.125-2.4,9.975c-1.601,2.851-3.888,5.037-6.862,6.563
	c-2.976,1.524-6.413,2.288-10.313,2.288c-5.801,0-11.175-2.001-16.125-6l2.4-3.601c1.999,1.75,4.099,3.075,6.3,3.976
	c2.2,0.899,4.6,1.35,7.2,1.35c4.5,0,8.087-1.313,10.762-3.938c2.674-2.625,4.013-6.138,4.013-10.538v-6.375
	c-1.4,2.75-3.401,4.901-6,6.45c-2.601,1.55-5.601,2.325-9,2.325c-3.5,0-6.613-0.812-9.337-2.438
	c-2.726-1.624-4.851-3.874-6.375-6.75c-1.526-2.875-2.288-6.137-2.288-9.787c0-3.649,0.762-6.9,2.288-9.75
	c1.524-2.85,3.662-5.074,6.413-6.675c2.749-1.6,5.875-2.4,9.375-2.4c3.399,0,6.375,0.763,8.925,2.288
	c2.55,1.526,4.549,3.688,6,6.487v-8.625H216.077z M204.227,65.754c2.149-1.275,3.825-3.038,5.025-5.288
	c1.2-2.25,1.8-4.774,1.8-7.575c0-2.85-0.6-5.4-1.8-7.65c-1.2-2.25-2.876-4.013-5.025-5.288c-2.15-1.275-4.575-1.913-7.275-1.913
	c-2.7,0-5.125,0.638-7.275,1.913c-2.15,1.275-3.838,3.038-5.063,5.288c-1.226,2.25-1.837,4.8-1.837,7.65s0.612,5.388,1.837,7.612
	c1.225,2.226,2.899,3.975,5.025,5.25c2.125,1.275,4.562,1.913,7.313,1.913C199.652,67.667,202.076,67.029,204.227,65.754z"/>
<path d="M258.976,39.729c3.199,3.875,4.675,9.088,4.425,15.638h-32.775c0.349,4.2,1.899,7.588,4.65,10.162
	c2.75,2.576,6.15,3.863,10.2,3.863c2.5,0,4.825-0.45,6.975-1.35c2.149-0.9,3.999-2.175,5.55-3.825l2.85,2.85
	c-1.9,2.051-4.188,3.638-6.862,4.763c-2.675,1.125-5.613,1.688-8.813,1.688c-3.8,0-7.175-0.837-10.125-2.513
	c-2.951-1.675-5.263-4.013-6.938-7.012c-1.676-3-2.513-6.424-2.513-10.275c0-3.799,0.837-7.211,2.513-10.237
	c1.675-3.024,3.987-5.374,6.938-7.05c2.95-1.675,6.274-2.513,9.975-2.513C251.126,33.917,255.776,35.855,258.976,39.729z
	 M258.901,51.467c-0.25-4.099-1.613-7.361-4.087-9.787c-2.475-2.425-5.713-3.638-9.712-3.638c-3.951,0-7.25,1.226-9.9,3.675
	c-2.651,2.451-4.176,5.7-4.575,9.75H258.901z"/>
<path d="M329.851,25.479c3.549,3.026,5.325,7.313,5.325,12.862c0,5.75-1.775,10.2-5.325,13.35c-3.551,3.15-8.576,4.725-15.075,4.725
	h-14.175v16.95h-5.175V20.942h19.35C321.274,20.942,326.3,22.455,329.851,25.479z M326.138,48.354
	c2.725-2.274,4.088-5.562,4.088-9.862c0-4.2-1.351-7.399-4.05-9.6c-2.7-2.2-6.576-3.3-11.625-3.3h-13.95v26.175h13.95
	C319.55,51.767,323.412,50.63,326.138,48.354z"/>
<path d="M363.975,33.917c-3.4,0.05-6.313,0.862-8.737,2.438c-2.426,1.575-4.289,3.862-5.587,6.862v-9.15h-5.025v39.3h5.025v-21
	c0.349-4.25,1.787-7.613,4.313-10.088c2.523-2.475,5.861-3.687,10.012-3.637V33.917z"/>
<path d="M441.374,38.342c-2.801,0-5.324,0.65-7.574,1.95c-2.25,1.301-4.001,3.112-5.25,5.438c-1.251,2.325-1.875,4.987-1.875,7.987
	s0.624,5.676,1.875,8.025c1.249,2.351,3,4.175,5.25,5.475c2.25,1.301,4.773,1.95,7.574,1.95c2.551,0,4.887-0.45,7.013-1.35
	c2.125-0.9,3.912-2.2,5.362-3.9l2.851,3c-1.751,2.1-3.95,3.725-6.601,4.875c-2.65,1.151-5.6,1.725-8.85,1.725
	c-3.75,0-7.101-0.837-10.05-2.513c-2.951-1.675-5.263-4.024-6.938-7.05c-1.676-3.025-2.513-6.437-2.513-10.238
	c0-3.799,0.837-7.211,2.513-10.237c1.675-3.024,3.986-5.374,6.938-7.05c2.949-1.675,6.3-2.513,10.05-2.513
	c3.049,0,5.837,0.5,8.362,1.5c2.524,1.001,4.688,2.4,6.487,4.2l-2.85,3.375C449.949,39.893,446.024,38.342,441.374,38.342z"/>
<path d="M495.15,39.729c3.199,3.875,4.675,9.088,4.425,15.638h-32.774c0.349,4.2,1.899,7.588,4.649,10.162
	c2.749,2.576,6.15,3.863,10.2,3.863c2.5,0,4.824-0.45,6.975-1.35c2.149-0.9,4-2.175,5.551-3.825l2.85,2.85
	c-1.9,2.051-4.188,3.638-6.862,4.763c-2.676,1.125-5.613,1.688-8.813,1.688c-3.801,0-7.176-0.837-10.125-2.513
	c-2.951-1.675-5.263-4.013-6.938-7.012c-1.676-3-2.513-6.424-2.513-10.275c0-3.799,0.837-7.211,2.513-10.237
	c1.675-3.024,3.986-5.374,6.938-7.05c2.949-1.675,6.274-2.513,9.975-2.513C487.3,33.917,491.95,35.855,495.15,39.729z
	 M495.075,51.467c-0.251-4.099-1.612-7.361-4.087-9.787c-2.476-2.425-5.713-3.638-9.713-3.638c-3.95,0-7.25,1.226-9.9,3.675
	c-2.65,2.451-4.175,5.7-4.574,9.75H495.075z"/>
<path d="M525.374,38.83c-1.851-0.525-3.675-0.788-5.475-0.788c-2.501,0-4.513,0.487-6.038,1.462s-2.287,2.438-2.287,4.388
	c0,1.35,0.412,2.45,1.237,3.3c0.825,0.851,1.85,1.538,3.075,2.063c1.225,0.525,2.937,1.113,5.138,1.763
	c2.7,0.8,4.899,1.588,6.6,2.362c1.699,0.776,3.15,1.901,4.351,3.375c1.199,1.476,1.8,3.413,1.8,5.813
	c0,3.551-1.351,6.263-4.05,8.138c-2.7,1.875-6.075,2.813-10.125,2.813c-2.851,0-5.601-0.475-8.25-1.425
	c-2.651-0.949-4.875-2.299-6.676-4.05l2.025-3.6c1.699,1.55,3.713,2.775,6.037,3.675c2.325,0.9,4.688,1.35,7.088,1.35
	c2.649,0,4.812-0.549,6.487-1.65c1.675-1.099,2.513-2.7,2.513-4.8c0-1.45-0.426-2.637-1.275-3.563
	c-0.851-0.925-1.912-1.65-3.188-2.175c-1.274-0.525-3.037-1.137-5.287-1.837c-2.65-0.799-4.8-1.575-6.45-2.325
	c-1.649-0.75-3.05-1.838-4.2-3.263s-1.725-3.287-1.725-5.587c0-3.45,1.287-6.049,3.862-7.8c2.575-1.75,5.787-2.625,9.638-2.625
	c2.25,0,4.425,0.3,6.525,0.9c2.1,0.6,3.975,1.425,5.625,2.475l-1.95,3.825C528.899,40.093,527.224,39.354,525.374,38.83z"/>
<path d="M559.049,38.83c-1.851-0.525-3.676-0.788-5.475-0.788c-2.502,0-4.514,0.487-6.038,1.462
	c-1.526,0.975-2.288,2.438-2.288,4.388c0,1.35,0.413,2.45,1.238,3.3c0.824,0.851,1.85,1.538,3.074,2.063s2.938,1.113,5.139,1.763
	c2.699,0.8,4.898,1.588,6.6,2.362c1.699,0.776,3.15,1.901,4.35,3.375c1.2,1.476,1.801,3.413,1.801,5.813
	c0,3.551-1.351,6.263-4.051,8.138c-2.699,1.875-6.074,2.813-10.125,2.813c-2.85,0-5.6-0.475-8.25-1.425
	c-2.65-0.949-4.875-2.299-6.675-4.05l2.024-3.6c1.699,1.55,3.713,2.775,6.038,3.675c2.325,0.9,4.688,1.35,7.087,1.35
	c2.65,0,4.813-0.549,6.488-1.65c1.674-1.099,2.512-2.7,2.512-4.8c0-1.45-0.425-2.637-1.274-3.563
	c-0.851-0.925-1.913-1.65-3.188-2.175c-1.274-0.525-3.038-1.137-5.288-1.837c-2.65-0.799-4.799-1.575-6.449-2.325
	s-3.051-1.838-4.2-3.263c-1.151-1.425-1.726-3.287-1.726-5.587c0-3.45,1.287-6.049,3.863-7.8c2.574-1.75,5.787-2.625,9.637-2.625
	c2.25,0,4.426,0.3,6.525,0.9c2.1,0.6,3.975,1.425,5.625,2.475l-1.949,3.825C562.574,40.093,560.898,39.354,559.049,38.83z"/>
<path d="M582.447,20.229c0.649,0.675,0.976,1.513,0.976,2.513c0,1-0.338,1.85-1.013,2.55c-0.675,0.701-1.488,1.05-2.438,1.05
	c-1.001,0-1.838-0.349-2.513-1.05c-0.675-0.7-1.013-1.549-1.013-2.55c0-1,0.338-1.838,1.013-2.513s1.512-1.013,2.513-1.013
	C580.973,19.217,581.797,19.555,582.447,20.229z M577.423,34.067h5.024v39.3h-5.024V34.067z"/>
<path d="M628.685,38.004c2.674,2.726,4.013,6.463,4.013,11.212v24.15h-5.101v-22.95c0-3.7-1.025-6.6-3.074-8.7
	c-2.051-2.1-4.901-3.15-8.551-3.15c-4.05,0.05-7.287,1.301-9.712,3.75c-2.426,2.451-3.813,5.75-4.163,9.9v21.15h-5.024v-39.3h5.024
	v9.15c1.351-3.049,3.338-5.35,5.963-6.9c2.625-1.549,5.813-2.35,9.563-2.4C622.321,33.917,626.009,35.28,628.685,38.004z"/>
<path d="M680.097,34.067v35.175c0,3.801-0.8,7.125-2.399,9.975c-1.602,2.851-3.889,5.037-6.863,6.563
	c-2.975,1.524-6.412,2.288-10.313,2.288c-5.801,0-11.175-2.001-16.125-6l2.4-3.601c1.999,1.75,4.1,3.075,6.3,3.976
	c2.2,0.899,4.6,1.35,7.2,1.35c4.5,0,8.087-1.313,10.762-3.938s4.014-6.138,4.014-10.538v-6.375c-1.4,2.75-3.401,4.901-6,6.45
	c-2.602,1.55-5.602,2.325-9,2.325c-3.501,0-6.613-0.812-9.338-2.438c-2.727-1.624-4.851-3.874-6.375-6.75
	c-1.525-2.875-2.287-6.137-2.287-9.787c0-3.649,0.762-6.9,2.287-9.75c1.524-2.85,3.662-5.074,6.412-6.675
	c2.75-1.6,5.875-2.4,9.375-2.4c3.4,0,6.375,0.763,8.926,2.288c2.549,1.526,4.549,3.688,6,6.487v-8.625H680.097z M668.246,65.754
	c2.15-1.275,3.826-3.038,5.025-5.288c1.2-2.25,1.801-4.774,1.801-7.575c0-2.85-0.601-5.4-1.801-7.65
	c-1.199-2.25-2.875-4.013-5.025-5.288s-4.574-1.913-7.274-1.913s-5.126,0.638-7.274,1.913c-2.15,1.275-3.838,3.038-5.063,5.288
	c-1.227,2.25-1.838,4.8-1.838,7.65s0.611,5.388,1.838,7.612c1.225,2.226,2.898,3.975,5.024,5.25
	c2.124,1.275,4.562,1.913,7.313,1.913C663.672,67.667,666.096,67.029,668.246,65.754z"/>
<path fill="#226149" d="M408.207,43.65c1.344,0,2.511,0.716,3.168,1.782v-8.348c0-1.75-1.419-3.167-3.168-3.167h-33.264
	c-1.75,0-3.168,1.418-3.168,3.167v8.348c0.656-1.066,1.824-1.782,3.168-1.782c2.06,0,3.73,1.67,3.73,3.73
	c0,2.061-1.671,3.731-3.73,3.731c-1.344,0-2.512-0.716-3.168-1.782V68.4c0.656-1.066,1.824-1.782,3.168-1.782
	c2.06,0,3.73,1.669,3.73,3.73c0,1.344-0.717,2.511-1.783,3.168h29.368c-1.065-0.657-1.782-1.825-1.782-3.168
	c0-2.061,1.67-3.73,3.73-3.73c1.344,0,2.511,0.716,3.168,1.782V49.33c-0.657,1.066-1.824,1.782-3.168,1.782
	c-2.061,0-3.73-1.67-3.73-3.731C404.477,45.32,406.146,43.65,408.207,43.65z"/>
<path fill="#D6BD28" d="M408.207,66.618c-2.061,0-3.73,1.67-3.73,3.73c0,1.344,0.717,2.511,1.782,3.168h1.948
	c-1.75,0-3.168-1.418-3.168-3.168c0-1.75,1.418-3.168,3.168-3.168c1.749,0,3.168,1.418,3.168,3.168V68.4
	C410.718,67.334,409.551,66.618,408.207,66.618z"/>
<path fill="#D6BD28" d="M408.207,67.181c-1.75,0-3.168,1.418-3.168,3.168c0,1.75,1.418,3.168,3.168,3.168
	c1.749,0,3.168-1.418,3.168-3.168C411.375,68.599,409.956,67.181,408.207,67.181z M408.207,72.091c-0.963,0-1.742-0.78-1.742-1.742
	s0.779-1.743,1.742-1.743c0.962,0,1.742,0.78,1.742,1.743S409.169,72.091,408.207,72.091z"/>
<path fill="#D6BD28" d="M408.207,43.65c-2.061,0-3.73,1.67-3.73,3.73c0,2.061,1.67,3.731,3.73,3.731
	c1.344,0,2.511-0.716,3.168-1.782v-3.897C410.718,44.367,409.551,43.65,408.207,43.65z M408.207,49.124
	c-0.963,0-1.742-0.78-1.742-1.743s0.779-1.742,1.742-1.742c0.962,0,1.742,0.78,1.742,1.742S409.169,49.124,408.207,49.124z"/>
<path fill="#D6BD28" d="M374.943,43.65c-1.344,0-2.512,0.716-3.168,1.782v3.897c0.656,1.066,1.824,1.782,3.168,1.782
	c2.06,0,3.73-1.67,3.73-3.731C378.674,45.32,377.003,43.65,374.943,43.65z M374.943,49.124c-0.963,0-1.742-0.78-1.742-1.743
	s0.779-1.742,1.742-1.742c0.962,0,1.742,0.78,1.742,1.742S375.905,49.124,374.943,49.124z"/>
<path fill="#D6BD28" d="M374.943,66.618c-1.344,0-2.512,0.716-3.168,1.782v1.948c0-1.75,1.418-3.168,3.168-3.168
	c1.749,0,3.168,1.418,3.168,3.168c0,1.75-1.419,3.168-3.168,3.168h1.947c1.066-0.657,1.783-1.825,1.783-3.168
	C378.674,68.288,377.003,66.618,374.943,66.618z"/>
<path fill="#D6BD28" d="M374.943,67.181c-1.75,0-3.168,1.418-3.168,3.168c0,1.75,1.418,3.168,3.168,3.168
	c1.749,0,3.168-1.418,3.168-3.168C378.111,68.599,376.692,67.181,374.943,67.181z M374.943,72.091c-0.963,0-1.742-0.78-1.742-1.742
	s0.779-1.743,1.742-1.743c0.962,0,1.742,0.78,1.742,1.743S375.905,72.091,374.943,72.091z"/>
<rect x="384.094" y="41.435" fill="#1F2533" width="14.963" height="14.964"/>
<circle fill="#13151C" cx="391.575" cy="48.917" r="6.128"/>
<circle fill="#040407" cx="391.576" cy="48.917" r="5.251"/>
<rect x="386.121" y="62.425" fill="#1E1B22" width="14.809" height="5.834"/>
<rect x="386.062" y="56.398" width="11.027" height="6.026"/>
<rect x="386.062" y="56.399" fill="#6E3A31" width="11.027" height="1.281"/>
<rect x="386.062" y="61.143" fill="#6E3A31" width="11.027" height="1.282"/>
<g>
	<path fill="#4169E1" d="M319.331,128.361v4.914h-21.756v-4.074l11.088-11.424c1.063-1.063,1.917-2.113,2.562-3.149
		c0.644-1.036,0.966-1.933,0.966-2.688c0-1.063-0.42-1.896-1.26-2.499c-0.84-0.602-2.002-0.903-3.486-0.903
		c-1.288,0-2.66,0.322-4.116,0.967c-1.457,0.644-2.829,1.54-4.116,2.688l-2.226-4.326c1.736-1.344,3.563-2.387,5.481-3.129
		c1.918-0.741,3.843-1.113,5.775-1.113c1.932,0,3.64,0.309,5.124,0.925c1.483,0.616,2.639,1.49,3.465,2.625
		c0.826,1.134,1.239,2.442,1.239,3.927c0,1.428-0.49,2.939-1.47,4.536c-0.98,1.596-2.352,3.317-4.116,5.166l-7.476,7.56H319.331z"/>
	<path fill="#4169E1" d="M344.993,107.487c2.184,2.576,3.276,6.272,3.276,11.088c0,4.788-1.092,8.471-3.276,11.046
		c-2.184,2.577-5.306,3.864-9.366,3.864c-4.061,0-7.182-1.287-9.366-3.864c-2.184-2.575-3.276-6.258-3.276-11.046
		c0-4.815,1.092-8.512,3.276-11.088c2.184-2.575,5.306-3.864,9.366-3.864C339.687,103.623,342.809,104.912,344.993,107.487z
		 M330.461,110.616c-1.121,1.694-1.68,4.348-1.68,7.959c0,3.585,0.56,6.23,1.68,7.938c1.12,1.708,2.841,2.562,5.166,2.562
		c2.324,0,4.045-0.854,5.166-2.562c1.12-1.708,1.68-4.354,1.68-7.938c0-3.611-0.56-6.265-1.68-7.959
		c-1.121-1.693-2.842-2.541-5.166-2.541C333.302,108.075,331.581,108.923,330.461,110.616z"/>
	<path fill="#4169E1" d="M350.453,103.875h11.801v29.4h-5.627v-24.444h-6.174V103.875z"/>
	<path fill="#4169E1" d="M366.832,103.875h22.68v4.2l-12.096,25.2h-5.964l11.718-24.486h-11.298l-0.042,4.158h-4.998V103.875z"/>
	<path fill="#4169E1" d="M404.884,98.962h2.268v39.479h-2.268V98.962z"/>
	<path fill="#4169E1" d="M421.978,103.917h21.588v1.723h-9.912v27.636h-1.764V105.64h-9.912V103.917z"/>
	<path fill="#4169E1" d="M458.959,112.801c1.554,0.966,2.729,2.316,3.528,4.053c0.798,1.736,1.183,3.725,1.154,5.964h-19.109
		c0.084,1.764,0.518,3.318,1.302,4.662c0.783,1.344,1.848,2.388,3.192,3.129c1.344,0.742,2.855,1.113,4.535,1.113
		c1.484,0,2.863-0.259,4.138-0.777c1.273-0.518,2.358-1.267,3.255-2.247l1.008,1.134c-1.036,1.12-2.282,1.981-3.738,2.583
		c-1.456,0.603-3.038,0.903-4.746,0.903c-2.044,0-3.878-0.469-5.502-1.407c-1.624-0.938-2.891-2.239-3.801-3.905
		s-1.365-3.55-1.365-5.649s0.462-3.99,1.387-5.67c0.924-1.68,2.19-2.988,3.801-3.927c1.609-0.938,3.437-1.407,5.48-1.407
		C455.578,111.352,457.405,111.834,458.959,112.801z M462.046,121.264c-0.168-2.521-1.022-4.536-2.562-6.048
		c-1.541-1.513-3.543-2.269-6.007-2.269s-4.508,0.764-6.132,2.289c-1.624,1.526-2.548,3.535-2.771,6.027H462.046z"/>
	<path fill="#4169E1" d="M483.97,133.275l-0.042-4.326c-0.896,1.484-2.094,2.583-3.592,3.297s-3.213,1.071-5.145,1.071
		c-1.428,0-2.688-0.279-3.78-0.84c-1.092-0.56-1.939-1.323-2.541-2.289c-0.603-0.966-0.903-2.064-0.903-3.297
		c0-1.82,0.729-3.255,2.185-4.306c1.455-1.05,3.444-1.574,5.964-1.574h7.77v-2.143c-0.027-1.875-0.588-3.331-1.68-4.368
		c-1.092-1.035-2.716-1.554-4.872-1.554c-1.316,0-2.562,0.246-3.737,0.735c-1.177,0.49-2.381,1.197-3.612,2.121l-0.84-1.345
		c1.428-1.035,2.799-1.813,4.115-2.33c1.316-0.519,2.758-0.777,4.326-0.777c2.548,0,4.516,0.658,5.901,1.974
		c1.386,1.316,2.093,3.123,2.121,5.418l0.084,14.532H483.97z M480.777,130.335c1.455-0.924,2.506-2.323,3.15-4.199v-3.57h-7.645
		c-2.156,0-3.801,0.364-4.935,1.092c-1.135,0.729-1.701,1.792-1.701,3.192c0,1.456,0.524,2.632,1.575,3.527
		c1.05,0.896,2.457,1.345,4.221,1.345C477.543,131.722,479.321,131.26,480.777,130.335z"/>
	<path fill="#4169E1" d="M527.376,113.619c1.47,1.513,2.205,3.612,2.205,6.3v13.356h-1.723v-13.02c0-2.24-0.616-3.99-1.848-5.25
		c-1.232-1.261-2.954-1.891-5.166-1.891c-2.604,0.057-4.641,0.924-6.111,2.604c-1.47,1.68-2.205,3.962-2.205,6.846v10.71h-1.722
		v-13.02c0-2.24-0.623-3.99-1.869-5.25c-1.246-1.261-2.961-1.891-5.145-1.891c-2.604,0.057-4.648,0.932-6.132,2.625
		c-1.484,1.694-2.227,3.969-2.227,6.825v10.71h-1.722v-21.882h1.722v5.754c0.7-1.876,1.799-3.297,3.297-4.263
		c1.498-0.967,3.339-1.477,5.523-1.533c2.184,0,3.976,0.553,5.376,1.659c1.399,1.106,2.296,2.667,2.688,4.683
		c0.673-2.044,1.771-3.598,3.298-4.662c1.525-1.063,3.408-1.623,5.648-1.68C523.869,111.352,525.905,112.107,527.376,113.619z"/>
	<path fill="#4169E1" d="M545.54,103.917h9.24v29.358h-1.723V105.64h-7.518V103.917z"/>
	<path fill="#4169E1" d="M584.872,107.613c2.03,2.549,3.045,6.202,3.045,10.962c0,4.761-1.015,8.421-3.045,10.983
		c-2.03,2.562-4.949,3.843-8.757,3.843c-3.78,0-6.692-1.281-8.736-3.843c-2.044-2.563-3.065-6.223-3.065-10.983
		c0-4.731,1.021-8.379,3.065-10.94c2.044-2.563,4.956-3.844,8.736-3.844C579.923,103.791,582.842,105.065,584.872,107.613z
		 M568.66,108.769c-1.722,2.254-2.583,5.522-2.583,9.807s0.861,7.561,2.583,9.828c1.722,2.269,4.207,3.402,7.455,3.402
		s5.733-1.134,7.455-3.402c1.722-2.268,2.583-5.544,2.583-9.828s-0.861-7.553-2.583-9.807s-4.207-3.381-7.455-3.381
		S570.382,106.515,568.66,108.769z"/>
	<path fill="#4169E1" d="M591.613,103.917h21.084v1.723l-13.943,27.636h-1.891l13.986-27.636h-17.598v4.578h-1.639V103.917z"/>
	<path fill="#4169E1" d="M635.923,131.554v1.722h-20.454l0.042-1.806l11.803-12.349c1.455-1.483,2.604-2.953,3.443-4.409
		s1.26-2.716,1.26-3.78c0-1.681-0.65-3.003-1.952-3.969c-1.303-0.967-3.073-1.449-5.313-1.449c-1.456,0-2.934,0.314-4.431,0.944
		c-1.498,0.631-2.835,1.506-4.012,2.625l-0.882-1.386c1.288-1.231,2.765-2.19,4.432-2.877c1.665-0.686,3.353-1.029,5.061-1.029
		c2.744,0,4.914,0.631,6.51,1.891c1.597,1.26,2.395,2.954,2.395,5.082c0,1.288-0.477,2.751-1.428,4.389
		c-0.953,1.638-2.255,3.325-3.906,5.062l-10.92,11.34H635.923z"/>
</g>
</svg>
